<svg xmlns="http://www.w3.org/2000/svg" width="65.53" height="63.488" viewBox="0 0 65.53 63.488">
  <defs>
    <style>
      .cls-1 {
        fill: #fff;
      }
    </style>
  </defs>
  <path id="accessories" class="cls-1" d="M65.317,40.386a1.937,1.937,0,0,0-1.11-2.722c-2.445-.836-8.982-3.416-12.043-5.989v-3.93A19.8,19.8,0,0,0,32.388,7.969h-.071A19.8,19.8,0,0,0,12.541,27.745v3.981C10.447,33.746,5.7,37.571,1.9,37.571A1.948,1.948,0,0,0,.431,40.726a27.57,27.57,0,0,0,15.132,8.395l6.6,10.469a12.331,12.331,0,0,0,7.119,5.315l-2.534,3.5a1.922,1.922,0,1,0,3.114,2.252l2.848-3.939,2.848,3.939a1.922,1.922,0,1,0,3.114-2.252l-2.559-3.54a12.334,12.334,0,0,0,6.847-5.055l6.9-10.436a17.75,17.75,0,0,0,4.926-1.954c9.6-5.644,10.2-6.532,10.419-6.867.038-.062,0,0,.1-.173ZM16.385,27.745A15.95,15.95,0,0,1,32.317,11.812h.071A15.951,15.951,0,0,1,48.321,27.745V30.6H16.385ZM5.971,40.636c2.723-.823,7.44-4.288,9.283-6.194H49.49a33.812,33.812,0,0,0,7.755,4.569c-10.8.468-16.471-1.619-23.644,3.036-3.4,1.82-6.915,3.7-12.964,3.7a23.4,23.4,0,0,1-12.67-3.711c-.753-.476-1.42-.954-2-1.4ZM39.76,57.695a8.538,8.538,0,0,1-14.342-.155L20.4,49.59l.234,0a26.109,26.109,0,0,0,11.117-2.315,35.919,35.919,0,0,0,12.9,2.683h.228ZM36.514,44.85c5.364-3.415,12.271-1.624,18.262-1.88C48.488,47.384,41.656,46.285,36.514,44.85Z" transform="translate(0 -7.969)"/>
</svg>
