<svg xmlns="http://www.w3.org/2000/svg" width="16.765" height="22.353" viewBox="0 0 16.765 22.353">
  <defs>
    <style>
      .cls-1 {
        fill: #fff;
      }
    </style>
  </defs>
  <g id="password_1_" data-name="password (1)" transform="translate(-3)">
    <path id="Path_6546" data-name="Path 6546" class="cls-1" d="M17.669,22.971H5.1a2.1,2.1,0,0,1-2.1-2.1V11.1A2.1,2.1,0,0,1,5.1,9H17.669a2.1,2.1,0,0,1,2.1,2.1v9.779A2.1,2.1,0,0,1,17.669,22.971ZM5.1,10.4a.7.7,0,0,0-.7.7v9.779a.7.7,0,0,0,.7.7H17.669a.7.7,0,0,0,.7-.7V11.1a.7.7,0,0,0-.7-.7Z" transform="translate(0 -0.618)"/>
    <path id="Path_6547" data-name="Path 6547" class="cls-1" d="M16.478,9.779a.7.7,0,0,1-.7-.7V5.588a4.191,4.191,0,0,0-8.382,0V9.081a.7.7,0,0,1-1.4,0V5.588a5.588,5.588,0,1,1,11.176,0V9.081A.7.7,0,0,1,16.478,9.779Z" transform="translate(-0.206)"/>
    <path id="Path_6548" data-name="Path 6548" class="cls-1" d="M11.863,16.725a1.863,1.863,0,1,1,1.863-1.863A1.865,1.865,0,0,1,11.863,16.725Zm0-2.328a.466.466,0,1,0,.466.466A.466.466,0,0,0,11.863,14.4Z" transform="translate(-0.48 -0.892)"/>
    <path id="Path_6549" data-name="Path 6549" class="cls-1" d="M11.949,19.708a.7.7,0,0,1-.7-.7V16.449a.7.7,0,1,1,1.4,0V19.01A.7.7,0,0,1,11.949,19.708Z" transform="translate(-0.566 -1.081)"/>
  </g>
</svg>
