<svg xmlns="http://www.w3.org/2000/svg" width="59.985" height="52.956" viewBox="0 0 59.985 52.956">
  <defs>
    <style>
      .cls-1 {
        fill: #fff;
      }
    </style>
  </defs>
  <g id="cinema" transform="translate(0 -30)">
    <path id="Path_6514" data-name="Path 6514" class="cls-1" d="M59.985,51.09,45.692,58.705V51.089h-3.7A12.3,12.3,0,1,0,22.846,35.972,12.3,12.3,0,1,0,3.7,51.089H0V82.956H45.692V75.339l14.293,7.615ZM33.39,33.515A8.787,8.787,0,1,1,24.6,42.3,8.8,8.8,0,0,1,33.39,33.515Zm-8.6,17.574H20.9a12.387,12.387,0,0,0,1.944-2.457,12.392,12.392,0,0,0,1.944,2.457ZM3.515,42.3A8.787,8.787,0,1,1,12.3,51.089,8.8,8.8,0,0,1,3.515,42.3ZM42.177,79.441H3.515V54.6H42.177ZM56.47,77.1,45.692,71.357V62.688L56.47,56.945Z"/>
    <path id="Path_6515" data-name="Path 6515" class="cls-1" d="M60,287.808H91.633V270H60Zm3.515-14.293h24.6v10.779h-24.6Z" transform="translate(-52.97 -211.882)"/>
  </g>
</svg>
