<svg xmlns="http://www.w3.org/2000/svg" width="20" height="20" viewBox="0 0 20 20">
  <defs>
    <style>
      .cls-1 {
        fill: #444b69;
      }
    </style>
  </defs>
  <g id="bank" transform="translate(-1 -1)">
    <path id="Path_6610" data-name="Path 6610" class="cls-1" d="M21,7.452V5.731l-2.1-2.8H13.277L11.462,1h-.925L8.723,2.935H3.1L1,5.731v1.72h.645v7.1H1V21H21V14.548h-.645v-7.1Zm-4.516-.645v-.45L16.3,6.161h4.054v.645Zm-1.29,8.71v.323H13.258v-.323a.323.323,0,0,1,.323-.323h1.29A.323.323,0,0,1,15.194,15.516Zm1.29,1.613h1.29v3.226h-1.29Zm-3.226,3.226h-1.29V17.774h1.29Zm-1.935-3.226v3.226h-.645V17.129H8.1v3.226H7.452V16.484h7.1v3.871H13.9V17.129Zm-1.29,3.226H8.742V17.774h1.29Zm-4.516,0H4.226V17.129h1.29ZM1.645,6.806V6.161H5.7l-.183.195v.45Zm7.1,1.29v.323a.323.323,0,0,1-.323.323H7.129a.323.323,0,0,1-.323-.323V8.1ZM13.9,14.548V9.387h.645v5.161Zm-.645-5.221v5.28a.966.966,0,0,0-.645.908v.323H9.387v-.323a.966.966,0,0,0-.645-.908V9.328a.966.966,0,0,0,.645-.908V8.1h3.226v.323a.966.966,0,0,0,.645.908ZM8.1,9.387v5.161H7.452V9.387Zm-.968,5.806h1.29a.323.323,0,0,1,.323.323v.323H6.806v-.323A.323.323,0,0,1,7.129,15.194Zm-.323,1.29v3.871H6.161V16.484Zm8.387,0h.645v3.871h-.645Zm-.323-7.742h-1.29a.323.323,0,0,1-.323-.323V8.1h1.935v.323A.323.323,0,0,1,14.871,8.742Zm-8.71-1.29V6.806h9.677v.645Zm2.191-1.29L11,3.337l2.648,2.825ZM18.581,3.581l1.452,1.935H15.7L13.882,3.581ZM10.817,1.645h.365l4.234,4.516h-.885L11,2.394,7.468,6.161H6.583Zm-7.4,1.935h4.7L6.3,5.516H1.968Zm2.1,3.871V8.1h.645v.323a.966.966,0,0,0,.645.908v5.221H2.29v-7.1ZM1.645,15.194H6.221a.957.957,0,0,0-.059.323v.323H5.516v.645H3.581v3.871H1.645Zm18.71,5.161H18.419V16.484H16.484v-.645h-.645v-.323a.957.957,0,0,0-.059-.323h4.575Zm-.645-5.806H15.194V9.328a.966.966,0,0,0,.645-.908V8.1h.645V7.452H19.71Z"/>
    <path id="Path_6611" data-name="Path 6611" class="cls-1" d="M29,10.968A.968.968,0,1,0,29.968,10,.969.969,0,0,0,29,10.968Zm1.29,0a.323.323,0,1,1-.323-.323A.323.323,0,0,1,30.29,10.968Z" transform="translate(-18.968 -6.097)"/>
    <path id="Path_6612" data-name="Path 6612" class="cls-1" d="M27,32.161h3.226V27H27Zm.645-4.516h1.935v3.871H27.645Z" transform="translate(-17.613 -17.613)"/>
    <path id="Path_6613" data-name="Path 6613" class="cls-1" d="M51.581,25.581V23H49v2.581Zm-1.935-1.935h1.29v1.29h-1.29Z" transform="translate(-32.516 -14.903)"/>
    <path id="Path_6614" data-name="Path 6614" class="cls-1" d="M49,35.581h2.581V33H49Zm.645-1.935h1.29v1.29h-1.29Z" transform="translate(-32.516 -21.677)"/>
    <path id="Path_6615" data-name="Path 6615" class="cls-1" d="M7,25.581H9.581V23H7Zm.645-1.935h1.29v1.29H7.645Z" transform="translate(-4.065 -14.903)"/>
    <path id="Path_6616" data-name="Path 6616" class="cls-1" d="M9.581,35.581V33H7v2.581ZM7.645,33.645h1.29v1.29H7.645Z" transform="translate(-4.065 -21.677)"/>
  </g>
</svg>
