<svg xmlns="http://www.w3.org/2000/svg" width="23.375" height="20.206" viewBox="0 0 23.375 20.206">
  <defs>
    <style>
      .cls-1 {
        fill: #444b69;
      }

      .cls-2 {
        fill: #08c1f8;
        stroke: #08c1f8;
      }

      .cls-3, .cls-5 {
        fill: none;
      }

      .cls-3 {
        stroke: #fff;
        stroke-linecap: round;
      }

      .cls-4 {
        stroke: none;
      }
    </style>
  </defs>
  <g id="Group_6795" data-name="Group 6795" transform="translate(-315.625 -208)">
    <g id="password" transform="translate(283.625 208)">
      <g id="Group_6793" data-name="Group 6793" transform="translate(32)">
        <g id="Group_6792" data-name="Group 6792" transform="translate(0)">
          <circle id="Ellipse_1344" data-name="Ellipse 1344" class="cls-1" cx="1" cy="1" r="1" transform="translate(12.375 12.348)"/>
          <path id="Path_6619" data-name="Path 6619" class="cls-1" d="M48.891,14.286a.789.789,0,0,0,.789-.789v-2.92a3.161,3.161,0,0,0-3.157-3.157h-.949V4.636a4.737,4.737,0,0,0-9.471,0V7.419h-.946A3.161,3.161,0,0,0,32,10.576v6.472a3.161,3.161,0,0,0,3.157,3.157H46.523a3.161,3.161,0,0,0,3.157-3.157.789.789,0,1,0-1.579,0,1.58,1.58,0,0,1-1.579,1.579H35.157a1.58,1.58,0,0,1-1.579-1.579V10.576A1.58,1.58,0,0,1,35.157,9H46.523A1.58,1.58,0,0,1,48.1,10.576V13.5A.789.789,0,0,0,48.891,14.286ZM44,7.419H37.681V4.636a3.159,3.159,0,0,1,6.314,0Z" transform="translate(-32)"/>
          <circle id="Ellipse_1345" data-name="Ellipse 1345" class="cls-1" cx="1" cy="1" r="1" transform="translate(6.375 12.348)"/>
          <circle id="Ellipse_1346" data-name="Ellipse 1346" class="cls-1" cx="1" cy="1" r="1" transform="translate(3.375 12.348)"/>
          <circle id="Ellipse_1347" data-name="Ellipse 1347" class="cls-1" cx="1" cy="1" r="1" transform="translate(9.375 12.348)"/>
        </g>
      </g>
    </g>
    <g id="Group_6794" data-name="Group 6794" transform="translate(27 -123)">
      <g id="Rectangle_2997" data-name="Rectangle 2997" class="cls-2" transform="translate(300 339)">
        <rect class="cls-4" width="12" height="12" rx="6"/>
        <rect class="cls-5" x="0.5" y="0.5" width="11" height="11" rx="5.5"/>
      </g>
      <path id="Path_5841" data-name="Path 5841" class="cls-3" d="M1603.886,345.156l2.658,2.661,5.891-5.479" transform="translate(-1302)"/>
    </g>
  </g>
</svg>
