<svg xmlns="http://www.w3.org/2000/svg" width="22.155" height="16.339" viewBox="0 0 22.155 16.339">
  <defs>
    <style>
      .cls-1 {
        fill: #fff;
      }
    </style>
  </defs>
  <g id="contact" transform="translate(0 5.25)">
    <path id="Path_6540" data-name="Path 6540" class="cls-1" d="M117.011,86.523a2.386,2.386,0,1,0-2.386-2.386A2.386,2.386,0,0,0,117.011,86.523Zm0-3.845a1.463,1.463,0,1,1-1.463,1.463A1.463,1.463,0,0,1,117.011,82.678Zm0,0" transform="translate(-110.392 -83.788)"/>
    <path id="Path_6541" data-name="Path 6541" class="cls-1" d="M83.665,234.872a3.581,3.581,0,0,0-2.594,1.085A3.828,3.828,0,0,0,80,238.666a.463.463,0,0,0,.462.462h6.406a.463.463,0,0,0,.462-.462,3.828,3.828,0,0,0-1.071-2.709A3.581,3.581,0,0,0,83.665,234.872ZM80.955,238.2a2.824,2.824,0,0,1,.775-1.6,2.719,2.719,0,0,1,3.868,0,2.837,2.837,0,0,1,.775,1.6Zm0,0" transform="translate(-77.046 -231.256)"/>
    <path id="Path_6542" data-name="Path 6542" class="cls-1" d="M19.847-5.25H2.308A2.309,2.309,0,0,0,0-2.942V8.782a2.309,2.309,0,0,0,2.308,2.308H19.847a2.309,2.309,0,0,0,2.308-2.308V-2.942A2.309,2.309,0,0,0,19.847-5.25ZM21.232,8.782a1.389,1.389,0,0,1-1.385,1.385H2.308A1.389,1.389,0,0,1,.923,8.782V-2.942A1.389,1.389,0,0,1,2.308-4.327H19.847a1.389,1.389,0,0,1,1.385,1.385Zm0,0"/>
    <path id="Path_6543" data-name="Path 6543" class="cls-1" d="M354.464,203.5h-5.377a.462.462,0,1,0,0,.923h5.377a.462.462,0,1,0,0-.923Zm0,0" transform="translate(-335.752 -201.042)"/>
    <path id="Path_6544" data-name="Path 6544" class="cls-1" d="M354.464,283.5h-5.377a.462.462,0,1,0,0,.923h5.377a.462.462,0,1,0,0-.923Zm0,0" transform="translate(-335.752 -278.088)"/>
    <path id="Path_6545" data-name="Path 6545" class="cls-1" d="M354.464,123.5h-5.377a.462.462,0,1,0,0,.923h5.377a.462.462,0,1,0,0-.923Zm0,0" transform="translate(-335.752 -123.996)"/>
  </g>
</svg>
