<svg xmlns="http://www.w3.org/2000/svg" width="17.712" height="17.712" viewBox="0 0 17.712 17.712">
  <defs>
    <style>
      .cls-1 {
        fill: #444b69;
        stroke: #444b69;
        stroke-width: 0.2px;
      }
    </style>
  </defs>
  <g id="email" transform="translate(0.1 0.1)">
    <path id="Path_6561" data-name="Path 6561" class="cls-1" d="M14.948,2.565A8.756,8.756,0,0,0,2.565,14.948a8.7,8.7,0,0,0,6.192,2.565.513.513,0,0,0,0-1.026,7.73,7.73,0,1,1,7.73-7.73v2.061a1.548,1.548,0,1,1-3.1,0V8.756a4.639,4.639,0,1,0-.925,2.775,2.574,2.574,0,0,0,5.046-.714V8.756A8.7,8.7,0,0,0,14.948,2.565Zm-6.192,9.8a3.609,3.609,0,1,1,3.609-3.609A3.613,3.613,0,0,1,8.756,12.365Z" transform="translate(0 0)"/>
    <path id="Path_6562" data-name="Path 6562" class="cls-1" d="M262.192,2.565A8.7,8.7,0,0,0,256,0V1.026a7.739,7.739,0,0,1,7.73,7.73v2.061a1.548,1.548,0,1,1-3.1,0V8.756A4.64,4.64,0,0,0,256,4.122V5.148a3.609,3.609,0,0,1,0,7.217v1.026a4.631,4.631,0,0,0,3.71-1.86,2.574,2.574,0,0,0,5.046-.714V8.756A8.7,8.7,0,0,0,262.192,2.565Z" transform="translate(-247.244 0)"/>
  </g>
</svg>
