<svg xmlns="http://www.w3.org/2000/svg" width="10.983" height="21.967" viewBox="0 0 10.983 21.967">
  <defs>
    <style>
      .cls-1 {
        fill: #5a6381;
        opacity: 0.61;
      }
    </style>
  </defs>
  <path id="Path_6488" data-name="Path 6488" class="cls-1" d="M312.949,61.092l-.147-.61a.523.523,0,1,0-1.017.246l.148.61a.245.245,0,0,1-.169.293l-.023.007-2.539.879a.523.523,0,0,0-.352.493l-.007,3.665a.246.246,0,0,1-.246.245l-2.207,0a.244.244,0,0,1-.182-.079.25.25,0,0,1-.065-.191c0-.015,0-.03,0-.045l-.007-3.6a.523.523,0,0,0-.352-.493l-2.572-.891a.246.246,0,0,1-.158-.289l1.933-8a.245.245,0,0,1,.092-.139l1.6-1.193a.244.244,0,0,1,.148-.049h1.337a.244.244,0,0,1,.155.055l.016.012,1.574,1.174a.247.247,0,0,1,.1.157c0,.012,0,.025.008.037l1.784,7.312a.523.523,0,0,0,1.017-.246l-1.781-7.3a1.289,1.289,0,0,0-.5-.8l-1.3-.967a2.978,2.978,0,1,0-3.483,0l-1.3.969a1.3,1.3,0,0,0-.483.732l-1.933,8a1.284,1.284,0,0,0,.833,1.524l2.22.769.006,3.207a1.294,1.294,0,0,0,1.292,1.379l2.207,0a1.293,1.293,0,0,0,1.291-1.29l.006-3.293,2.178-.754a1.29,1.29,0,0,0,.876-1.538ZM307.493,47.05a1.932,1.932,0,1,1-1.932,1.932A1.934,1.934,0,0,1,307.493,47.05Zm0,0" transform="translate(-302.002 -46.004)"/>
</svg>
