<svg id="team_2_" data-name="team (2)" xmlns="http://www.w3.org/2000/svg" width="22.791" height="23.004" viewBox="0 0 22.791 23.004">
  <defs>
    <style>
      .cls-1 {
        fill: #fff;
      }
    </style>
  </defs>
  <g id="Group_6335" data-name="Group 6335" transform="translate(8.737)">
    <g id="Group_6334" data-name="Group 6334">
      <path id="Path_6314" data-name="Path 6314" class="cls-1" d="M186.659,0a2.659,2.659,0,1,0,2.659,2.659A2.659,2.659,0,0,0,186.659,0Zm0,4.558a1.9,1.9,0,1,1,1.9-1.9A1.9,1.9,0,0,1,186.659,4.558Z" transform="translate(-184)"/>
    </g>
  </g>
  <g id="Group_6337" data-name="Group 6337" transform="translate(6.837 5.698)">
    <g id="Group_6336" data-name="Group 6336">
      <path id="Path_6315" data-name="Path 6315" class="cls-1" d="M149.7,120h-2.279A3.423,3.423,0,0,0,144,123.419v6.458h1.519v7.217h.76v-8.737h-.76v.76h-.76v-5.7a2.662,2.662,0,0,1,2.659-2.659H149.7a2.662,2.662,0,0,1,2.659,2.659v5.7h-.76v-.76h-.76v8.737h.76v-7.217h1.519v-6.458A3.423,3.423,0,0,0,149.7,120Z" transform="translate(-144 -120)"/>
    </g>
  </g>
  <g id="Group_6339" data-name="Group 6339" transform="translate(10.71 15.457)">
    <g id="Group_6338" data-name="Group 6338" transform="translate(0 0)">
      <rect id="Rectangle_3329" data-name="Rectangle 3329" class="cls-1" width="1.372" height="7.547" transform="translate(0 0)"/>
    </g>
  </g>
  <g id="Group_6341" data-name="Group 6341" transform="translate(16.714 3.799)">
    <g id="Group_6340" data-name="Group 6340">
      <path id="Path_6316" data-name="Path 6316" class="cls-1" d="M354.279,80a2.279,2.279,0,1,0,2.279,2.279A2.279,2.279,0,0,0,354.279,80Zm0,3.8a1.519,1.519,0,1,1,1.519-1.519A1.519,1.519,0,0,1,354.279,83.8Z" transform="translate(-352 -80)"/>
    </g>
  </g>
  <g id="Group_6343" data-name="Group 6343" transform="translate(16.714 8.737)">
    <g id="Group_6342" data-name="Group 6342">
      <path id="Path_6317" data-name="Path 6317" class="cls-1" d="M355.419,184H352v.76h3.419a1.9,1.9,0,0,1,1.9,1.9V191.6h-.76v-.76h-.76v7.217h.76v-5.7h1.519v-5.7A2.662,2.662,0,0,0,355.419,184Z" transform="translate(-352 -184)"/>
    </g>
  </g>
  <g id="Group_6345" data-name="Group 6345" transform="translate(15.194 15.574)">
    <g id="Group_6344" data-name="Group 6344">
      <path id="Path_6318" data-name="Path 6318" class="cls-1" d="M321.519,328v.76H320v.76h1.519v5.7h.76V328Z" transform="translate(-320 -328)"/>
    </g>
  </g>
  <g id="Group_6347" data-name="Group 6347" transform="translate(18.257 17.515)">
    <g id="Group_6346" data-name="Group 6346" transform="translate(0 0)">
      <rect id="Rectangle_3330" data-name="Rectangle 3330" class="cls-1" width="0.686" height="5.489"/>
    </g>
  </g>
  <g id="Group_6349" data-name="Group 6349" transform="translate(1.519 3.799)">
    <g id="Group_6348" data-name="Group 6348">
      <path id="Path_6319" data-name="Path 6319" class="cls-1" d="M34.279,80a2.279,2.279,0,1,0,2.279,2.279A2.279,2.279,0,0,0,34.279,80Zm0,3.8A1.519,1.519,0,1,1,35.8,82.279,1.519,1.519,0,0,1,34.279,83.8Z" transform="translate(-32 -80)"/>
    </g>
  </g>
  <g id="Group_6351" data-name="Group 6351" transform="translate(0 8.737)">
    <g id="Group_6350" data-name="Group 6350">
      <path id="Path_6320" data-name="Path 6320" class="cls-1" d="M2.659,184A2.662,2.662,0,0,0,0,186.659v5.7H1.519v5.7h.76v-7.217h-.76v.76H.76v-4.938a1.9,1.9,0,0,1,1.9-1.9H6.078V184Z" transform="translate(0 -184)"/>
    </g>
  </g>
  <g id="Group_6353" data-name="Group 6353" transform="translate(5.318 15.574)">
    <g id="Group_6352" data-name="Group 6352">
      <path id="Path_6321" data-name="Path 6321" class="cls-1" d="M112.76,328.76V328H112v7.217h.76v-5.7h1.519v-.76Z" transform="translate(-112 -328)"/>
    </g>
  </g>
  <g id="Group_6355" data-name="Group 6355" transform="translate(3.849 17.515)">
    <g id="Group_6354" data-name="Group 6354" transform="translate(0 0)">
      <rect id="Rectangle_3331" data-name="Rectangle 3331" class="cls-1" width="0.686" height="5.489"/>
    </g>
  </g>
</svg>
