<svg id="Group_6375" data-name="Group 6375" xmlns="http://www.w3.org/2000/svg" width="43.231" height="43.231" viewBox="0 0 43.231 43.231">
  <defs>
    <style>
      .cls-1 {
        fill: #fff;
      }
    </style>
  </defs>
  <g id="Group_6374" data-name="Group 6374" transform="translate(17.509 12.874)">
    <g id="Group_6327" data-name="Group 6327" transform="translate(0 7.098)">
      <g id="Group_6326" data-name="Group 6326">
        <path id="Path_6307" data-name="Path 6307" class="cls-1" d="M142.784,234.815h-3.279a2.68,2.68,0,0,0-2.677,2.677v5.42a.535.535,0,0,0,.535.535h7.562a.535.535,0,0,0,.535-.535v-5.42A2.68,2.68,0,0,0,142.784,234.815Z" transform="translate(-136.829 -234.815)"/>
      </g>
    </g>
    <g id="Group_6329" data-name="Group 6329" transform="translate(1.097 0)">
      <g id="Group_6328" data-name="Group 6328">
        <path id="Path_6308" data-name="Path 6308" class="cls-1" d="M170.333,38.84a3.219,3.219,0,1,0,3.219,3.219A3.223,3.223,0,0,0,170.333,38.84Z" transform="translate(-167.114 -38.84)"/>
      </g>
    </g>
  </g>
  <g id="Group_6357" data-name="Group 6357" transform="translate(5.589 5.861)">
    <g id="Group_6356" data-name="Group 6356">
      <path id="Path_6326" data-name="Path 6326" class="cls-1" d="M102.065,79.843A15.808,15.808,0,0,0,90.954,75.2a15.465,15.465,0,0,0-11.111,4.643,15.754,15.754,0,0,0,11.111,26.865,15.465,15.465,0,0,0,11.111-4.643,15.807,15.807,0,0,0,4.643-11.111A15.465,15.465,0,0,0,102.065,79.843ZM99.08,99.08a11.613,11.613,0,1,1,3.317-8.126A11.469,11.469,0,0,1,99.08,99.08Z" transform="translate(-75.2 -75.2)"/>
    </g>
  </g>
  <g id="Group_6359" data-name="Group 6359" transform="translate(35.855 20.129)">
    <g id="Group_6358" data-name="Group 6358">
      <path id="Path_6327" data-name="Path 6327" class="cls-1" d="M256.69,140.8h-4.4a1.487,1.487,0,1,0,0,2.974h4.4a1.487,1.487,0,0,0,0-2.974Z" transform="translate(-250.8 -140.8)"/>
    </g>
  </g>
  <g id="Group_6361" data-name="Group 6361" transform="translate(20.129 35.854)">
    <g id="Group_6360" data-name="Group 6360">
      <path id="Path_6328" data-name="Path 6328" class="cls-1" d="M142.287,250.8a1.514,1.514,0,0,0-1.487,1.487v4.4a1.487,1.487,0,0,0,2.974,0v-4.4A1.514,1.514,0,0,0,142.287,250.8Z" transform="translate(-140.8 -250.8)"/>
    </g>
  </g>
  <g id="Group_6363" data-name="Group 6363" transform="translate(31.251 31.251)">
    <g id="Group_6362" data-name="Group 6362">
      <path id="Path_6329" data-name="Path 6329" class="cls-1" d="M224.233,222.174l-3.145-3.145a1.456,1.456,0,0,0-2.059,2.059l3.145,3.145a1.456,1.456,0,1,0,2.059-2.059Z" transform="translate(-218.6 -218.6)"/>
    </g>
  </g>
  <g id="Group_6365" data-name="Group 6365" transform="translate(20.129)">
    <g id="Group_6364" data-name="Group 6364">
      <path id="Path_6330" data-name="Path 6330" class="cls-1" d="M142.287,0A1.514,1.514,0,0,0,140.8,1.487v4.4a1.487,1.487,0,1,0,2.974,0v-4.4A1.514,1.514,0,0,0,142.287,0Z" transform="translate(-140.8)"/>
    </g>
  </g>
  <g id="Group_6367" data-name="Group 6367" transform="translate(31.308 5.919)">
    <g id="Group_6366" data-name="Group 6366">
      <path id="Path_6331" data-name="Path 6331" class="cls-1" d="M224.633,41.829a1.45,1.45,0,0,0-2.059,0l-3.145,3.145a1.456,1.456,0,1,0,2.059,2.059l3.145-3.145A1.45,1.45,0,0,0,224.633,41.829Z" transform="translate(-219 -41.4)"/>
    </g>
  </g>
  <g id="Group_6369" data-name="Group 6369" transform="translate(0 20.129)">
    <g id="Group_6368" data-name="Group 6368">
      <path id="Path_6332" data-name="Path 6332" class="cls-1" d="M5.89,140.8h-4.4A1.514,1.514,0,0,0,0,142.287a1.476,1.476,0,0,0,1.487,1.487h4.4a1.487,1.487,0,1,0,0-2.974Z" transform="translate(0 -140.8)"/>
    </g>
  </g>
  <g id="Group_6371" data-name="Group 6371" transform="translate(5.861 31.251)">
    <g id="Group_6370" data-name="Group 6370">
      <path id="Path_6333" data-name="Path 6333" class="cls-1" d="M46.633,219.029a1.449,1.449,0,0,0-2.059,0l-3.145,3.145a1.456,1.456,0,1,0,2.059,2.059l3.145-3.145A1.45,1.45,0,0,0,46.633,219.029Z" transform="translate(-41 -218.6)"/>
    </g>
  </g>
  <g id="Group_6373" data-name="Group 6373" transform="translate(5.861 5.919)">
    <g id="Group_6372" data-name="Group 6372">
      <path id="Path_6334" data-name="Path 6334" class="cls-1" d="M46.633,44.974l-3.145-3.145a1.456,1.456,0,0,0-2.059,2.059l3.145,3.145a1.456,1.456,0,0,0,2.059-2.059Z" transform="translate(-41 -41.4)"/>
    </g>
  </g>
</svg>
