<svg xmlns="http://www.w3.org/2000/svg" width="22.171" height="19.725" viewBox="0 0 22.171 19.725">
  <defs>
    <style>
      .cls-1 {
        fill: #757998;
      }
    </style>
  </defs>
  <path id="heart_1_" data-name="heart (1)" class="cls-1" d="M11.085,19.725a1.3,1.3,0,0,1-.857-.322c-.9-.783-1.759-1.519-2.521-2.168l0,0a46.885,46.885,0,0,1-5.5-5.167A8.252,8.252,0,0,1,0,6.663,6.93,6.93,0,0,1,1.759,1.93,5.962,5.962,0,0,1,6.194,0,5.577,5.577,0,0,1,9.677,1.2a7.127,7.127,0,0,1,1.408,1.471A7.128,7.128,0,0,1,12.494,1.2,5.577,5.577,0,0,1,15.977,0a5.962,5.962,0,0,1,4.435,1.93,6.929,6.929,0,0,1,1.759,4.733,8.251,8.251,0,0,1-2.2,5.4,46.88,46.88,0,0,1-5.5,5.166c-.763.65-1.628,1.387-2.526,2.172a1.3,1.3,0,0,1-.857.322ZM6.194,1.3a4.677,4.677,0,0,0-3.48,1.512A5.637,5.637,0,0,0,1.3,6.663a6.943,6.943,0,0,0,1.9,4.573,46.138,46.138,0,0,0,5.347,5.007l0,0c.765.652,1.632,1.391,2.534,2.179.908-.79,1.776-1.53,2.542-2.183a46.149,46.149,0,0,0,5.346-5.006,6.944,6.944,0,0,0,1.9-4.573,5.637,5.637,0,0,0-1.415-3.852A4.677,4.677,0,0,0,15.977,1.3a4.307,4.307,0,0,0-2.689.931,6.3,6.3,0,0,0-1.5,1.734.82.82,0,0,1-1.408,0,6.3,6.3,0,0,0-1.5-1.734A4.307,4.307,0,0,0,6.194,1.3Zm0,0" transform="translate(0 0)"/>
</svg>
