<svg xmlns="http://www.w3.org/2000/svg" width="19.205" height="18.004" viewBox="0 0 19.205 18.004">
  <defs>
    <style>
      .cls-1 {
        fill: #444b69;
      }
    </style>
  </defs>
  <g id="browser_7_" data-name="browser (7)" transform="translate(-0.001 -16.013)">
    <path id="Path_6510" data-name="Path 6510" class="cls-1" d="M19.03,24.289l-7.464-7.464a2.78,2.78,0,0,0-3.926,0L.176,24.289a.6.6,0,0,0,.848.849l.476-.476v7.63a1.725,1.725,0,0,0,1.725,1.725h3a.375.375,0,0,0,.375-.375V28.091a1.876,1.876,0,0,1,1.876-1.876h2.251A1.876,1.876,0,0,1,12.6,28.091v5.552a.375.375,0,0,0,.375.375h3a1.725,1.725,0,0,0,1.725-1.725v-7.63l.476.476a.6.6,0,1,0,.848-.849Z" transform="translate(0)"/>
  </g>
</svg>
