<svg xmlns="http://www.w3.org/2000/svg" width="14.429" height="20.984" viewBox="0 0 14.429 20.984">
  <defs>
    <style>
      .cls-1 {
        fill: #444b69;
      }
    </style>
  </defs>
  <g id="location" transform="translate(-79.968 0.001)">
    <path id="Path_6617" data-name="Path 6617" class="cls-1" d="M87.182,20.983a1.253,1.253,0,0,1-1.1-.635l-.007-.013-5.2-9.524a7.305,7.305,0,0,1,.1-7.218A7.121,7.121,0,0,1,87.021,0c.107,0,.215,0,.323,0a7.121,7.121,0,0,1,6.051,3.592,7.305,7.305,0,0,1,.1,7.218l-5.2,9.524-.007.013a1.253,1.253,0,0,1-1.1.635Zm0-19.672h-.135A5.819,5.819,0,0,0,82.1,4.25a6,6,0,0,0-.079,5.932l5.157,9.438,5.157-9.438a6,6,0,0,0-.079-5.932,5.819,5.819,0,0,0-4.943-2.938h-.135Z"/>
    <path id="Path_6618" data-name="Path 6618" class="cls-1" d="M186.951,93.9a2.951,2.951,0,1,1,2.951-2.951A2.954,2.954,0,0,1,186.951,93.9Zm0-4.59a1.639,1.639,0,1,0,1.639,1.639A1.641,1.641,0,0,0,186.951,89.311Z" transform="translate(-99.769 -84.394)"/>
  </g>
</svg>
