<svg xmlns="http://www.w3.org/2000/svg" width="9.209" height="21.967" viewBox="0 0 9.209 21.967">
  <defs>
    <style>
      .cls-1 {
        fill: #5a6381;
        opacity: 0.61;
      }
    </style>
  </defs>
  <path id="Path_6487" class="cls-1" d="M8.556,52.592,6.393,51.356a2.978,2.978,0,1,0-3.581,0L.648,52.594A1.293,1.293,0,0,0,0,53.742l.114,4.866a.523.523,0,0,0,1.046-.024L1.045,53.72a.246.246,0,0,1,.123-.218L3.811,51.99a.243.243,0,0,1,.123-.033H5.27a.243.243,0,0,1,.132.038l.021.012L8.037,53.5a.248.248,0,0,1,.123.24c0,.013,0,.027,0,.04l-.186,7.937a.247.247,0,0,1-.165.227l-.012,0-1.5.557a.523.523,0,0,0-.34.489l-.007,3.678a.246.246,0,0,1-.246.245l-2.208,0a.248.248,0,0,1-.248-.248c0-1.061,0-2.23,0-3.678a.523.523,0,0,0-.34-.489l-1.514-.564a.247.247,0,0,1-.16-.228s0-.006,0-.008l-.073-3.1a.523.523,0,1,0-1.046.024l.073,3.1a1.3,1.3,0,0,0,.841,1.2l1.174.437c0,1.282,0,2.343,0,3.314A1.3,1.3,0,0,0,3.5,67.967l2.207,0A1.292,1.292,0,0,0,7,66.674L7,63.359l1.15-.428a1.3,1.3,0,0,0,.864-1.192L9.2,53.822a1.3,1.3,0,0,0-.647-1.23ZM4.6,47.046A1.932,1.932,0,1,1,2.67,48.978,1.934,1.934,0,0,1,4.6,47.046Zm0,0" transform="translate(0.001 -46)"/>
</svg>
