<svg id="Group_6390" data-name="Group 6390" xmlns="http://www.w3.org/2000/svg" width="37.406" height="43.69" viewBox="0 0 37.406 43.69">
  <defs>
    <style>
      .cls-1 {
        fill: #fff;
      }
    </style>
  </defs>
  <g id="thought" transform="translate(0 0)">
    <g id="Group_6385" data-name="Group 6385" transform="translate(0 0)">
      <g id="Group_6384" data-name="Group 6384" transform="translate(0)">
        <path id="Path_6339" data-name="Path 6339" class="cls-1" d="M69.978,16.342A16.578,16.578,0,1,0,42.511,29.073V43.69h19.52V36.156H69.98v-8.44h4.25ZM67.42,25.156V33.6H59.471V41.13h-14.4V27.866l-.475-.384a14.017,14.017,0,1,1,22.824-10.9v.231l3.12,8.347Z" transform="translate(-36.824)"/>
      </g>
    </g>
  </g>
  <g id="gear" transform="translate(5.278 12.609)">
    <g id="Group_6387" data-name="Group 6387" transform="translate(2.799 2.799)">
      <g id="Group_6386" data-name="Group 6386">
        <path id="Path_6340" data-name="Path 6340" class="cls-1" d="M182.16,181a1.16,1.16,0,1,0,1.16,1.16A1.161,1.161,0,0,0,182.16,181Z" transform="translate(-181 -181)"/>
      </g>
    </g>
    <g id="Group_6389" data-name="Group 6389">
      <g id="Group_6388" data-name="Group 6388">
        <path id="Path_6341" data-name="Path 6341" class="cls-1" d="M7.916,4.612V3.3L6.843,3.093a2.98,2.98,0,0,0-.234-.562l.6-.9L6.284.708l-.9.6a2.98,2.98,0,0,0-.562-.234L4.612,0H3.3L3.093,1.073a2.98,2.98,0,0,0-.562.234l-.9-.6-.925.925.6.9a2.98,2.98,0,0,0-.234.562L0,3.3V4.612l1.073.211a2.98,2.98,0,0,0,.234.562l-.6.9.925.925.9-.6a2.98,2.98,0,0,0,.562.234L3.3,7.916H4.612l.211-1.073a2.98,2.98,0,0,0,.562-.234l.9.6.925-.925-.6-.9a2.98,2.98,0,0,0,.234-.562Zm-3.958.969A1.623,1.623,0,1,1,5.582,3.958,1.625,1.625,0,0,1,3.958,5.582Z"/>
      </g>
    </g>
  </g>
  <g id="gear-2" data-name="gear" transform="translate(14.513 6.013)">
    <g id="Group_6387-2" data-name="Group 6387" transform="translate(4.632 4.632)">
      <g id="Group_6386-2" data-name="Group 6386">
        <path id="Path_6340-2" data-name="Path 6340" class="cls-1" d="M182.919,181a1.919,1.919,0,1,0,1.919,1.919A1.921,1.921,0,0,0,182.919,181Z" transform="translate(-181 -181)"/>
      </g>
    </g>
    <g id="Group_6389-2" data-name="Group 6389">
      <g id="Group_6388-2" data-name="Group 6388">
        <path id="Path_6341-2" data-name="Path 6341" class="cls-1" d="M13.1,7.633V5.468l-1.776-.35a4.932,4.932,0,0,0-.386-.93L11.93,2.7,10.4,1.171l-1.487.991a4.932,4.932,0,0,0-.93-.386L7.633,0H5.468l-.35,1.776a4.932,4.932,0,0,0-.93.386L2.7,1.171,1.171,2.7l.991,1.487a4.932,4.932,0,0,0-.386.93L0,5.468V7.633l1.776.35a4.932,4.932,0,0,0,.386.93L1.171,10.4,2.7,11.93l1.487-.991a4.932,4.932,0,0,0,.93.386l.35,1.776H7.633l.35-1.776a4.932,4.932,0,0,0,.93-.386l1.487.991,1.53-1.53-.991-1.487a4.932,4.932,0,0,0,.386-.93Zm-6.551,1.6A2.687,2.687,0,1,1,9.237,6.551,2.69,2.69,0,0,1,6.551,9.237Z"/>
      </g>
    </g>
  </g>
</svg>
