<svg xmlns="http://www.w3.org/2000/svg" width="59.866" height="59.865" viewBox="0 0 59.866 59.865">
  <defs>
    <style>
      .cls-1 {
        fill: #fff;
      }
    </style>
  </defs>
  <g id="music_1_" transform="translate(0 -0.004)">
    <g id="Group_6644" transform="translate(0 0.004)">
      <path id="Path_6513" class="cls-1" d="M59.154.548A2.162,2.162,0,0,0,57.493.016L19.008,4.292a2.138,2.138,0,0,0-1.9,2.125v38.1a12.4,12.4,0,0,0-6.414-1.753C4.8,42.764,0,46.6,0,51.317s4.8,8.552,10.69,8.552,10.69-3.836,10.69-8.552V19.032L55.59,15.219V40.235a12.4,12.4,0,0,0-6.414-1.747c-5.895,0-10.69,3.836-10.69,8.552s4.8,8.552,10.69,8.552,10.69-3.836,10.69-8.552V2.141A2.138,2.138,0,0,0,59.154.548ZM10.69,55.593c-3.476,0-6.414-1.958-6.414-4.276S7.214,47.04,10.69,47.04,17.1,49,17.1,51.317,14.167,55.593,10.69,55.593Zm38.485-4.276c-3.476,0-6.414-1.958-6.414-4.276s2.938-4.276,6.414-4.276,6.414,1.958,6.414,4.276S52.652,51.317,49.176,51.317Zm6.414-40.4-34.209,3.8V8.341L55.59,4.529Z" transform="translate(0 -0.004)"/>
    </g>
  </g>
</svg>
