<svg xmlns="http://www.w3.org/2000/svg" width="58" height="54.148" viewBox="0 0 58 54.148">
  <defs>
    <style>
      .cls-1 {
        fill: #fff;
      }
    </style>
  </defs>
  <g id="news-admin" transform="translate(0 -17)">
    <path id="Path_6516" data-name="Path 6516" class="cls-1" d="M56.3,28.781H43.387V18.7a1.7,1.7,0,0,0-1.7-1.7H1.7A1.7,1.7,0,0,0,0,18.7V62.652a8.506,8.506,0,0,0,8.5,8.5H49.5a8.506,8.506,0,0,0,8.5-8.5V30.48A1.7,1.7,0,0,0,56.3,28.781ZM8.5,67.75a5.1,5.1,0,0,1-5.1-5.1V20.4h36.59c0,44.912-.021,42.415.039,43.056a8.469,8.469,0,0,0,1.664,4.3Zm46.105-5.1a5.1,5.1,0,0,1-5.1,5.1h-1.02a5.1,5.1,0,0,1-5.1-5.1V32.18H54.6Z"/>
    <path id="Path_6517" data-name="Path 6517" class="cls-1" d="M92.074,89H66.7a1.7,1.7,0,0,0,0,3.4H92.074a1.7,1.7,0,0,0,0-3.4Z" transform="translate(-57.637 -63.844)"/>
    <path id="Path_6518" data-name="Path 6518" class="cls-1" d="M92.074,153H66.7a1.7,1.7,0,0,0,0,3.4H92.074a1.7,1.7,0,0,0,0-3.4Z" transform="translate(-57.637 -120.594)"/>
    <path id="Path_6519" data-name="Path 6519" class="cls-1" d="M92.074,393H66.7a1.7,1.7,0,1,0,0,3.4H92.074a1.7,1.7,0,1,0,0-3.4Z" transform="translate(-57.637 -333.406)"/>
    <path id="Path_6520" data-name="Path 6520" class="cls-1" d="M191.387,217H178.7a1.7,1.7,0,0,0-1.7,1.7v12.687a1.7,1.7,0,0,0,1.7,1.7h12.687a1.7,1.7,0,0,0,1.7-1.7V218.7A1.7,1.7,0,0,0,191.387,217Zm-1.7,12.687H180.4V220.4h9.289Z" transform="translate(-156.949 -177.344)"/>
    <path id="Path_6521" data-name="Path 6521" class="cls-1" d="M66.7,244.4h5.437a1.7,1.7,0,1,0,0-3.4H66.7a1.7,1.7,0,1,0,0,3.4Z" transform="translate(-57.637 -198.625)"/>
    <path id="Path_6522" data-name="Path 6522" class="cls-1" d="M66.7,308.4h5.437a1.7,1.7,0,0,0,0-3.4H66.7a1.7,1.7,0,0,0,0,3.4Z" transform="translate(-57.637 -255.375)"/>
  </g>
</svg>
