<svg xmlns="http://www.w3.org/2000/svg" width="55.009" height="63.959" viewBox="0 0 55.009 63.959">
  <defs>
    <style>
      .cls-1 {
        fill: #fff;
      }
    </style>
  </defs>
  <g id="plant_2_" data-name="plant (2)" transform="translate(-35.823)">
    <path id="Path_6526" data-name="Path 6526" class="cls-1" d="M89.754,19.884,88.417,13.2l-3.722,1.49C81.429,16,77.946,17.225,74.318,18.342A50.235,50.235,0,0,0,67.106,5.433L62.993,0l-2.7,2.962a146.269,146.269,0,0,1-14.86,14.03,26.709,26.709,0,0,0-8.955,14.655,26.3,26.3,0,0,0,2.012,17.364l7.228,14.947h7.906a48.3,48.3,0,0,0,18.17-3.15,29.723,29.723,0,0,0,12-8.656c6.436-7.851,8.553-19.311,5.96-32.268Zm-6.38-.665a91.579,91.579,0,0,1-9.208,14.7A117.508,117.508,0,0,1,61.18,48.25,125.392,125.392,0,0,1,48.766,58.523V46.657A22.586,22.586,0,0,1,53.7,32.478a22.942,22.942,0,0,1,12.4-7.986c1.973-.487,3.913-1,5.789-1.529l0,.01,1.713-.505.049-.014h0c3.362-.992,6.616-2.077,9.713-3.235ZM40.133,32.467a22.941,22.941,0,0,1,7.691-12.59,150.728,150.728,0,0,0,14.9-14.023l1.393,1.841a46.69,46.69,0,0,1,6.6,11.708c-1.785.5-3.629.989-5.5,1.451a26.709,26.709,0,0,0-14.442,9.295,26.3,26.3,0,0,0-5.748,16.508v7.249L41.862,47.38A22.586,22.586,0,0,1,40.133,32.467ZM80.9,49.777a26.018,26.018,0,0,1-10.512,7.56,44.612,44.612,0,0,1-16.76,2.875H52.8a131,131,0,0,0,10.877-9.169,121.337,121.337,0,0,0,13.432-14.8,96.024,96.024,0,0,0,9.18-14.482C88.324,33.117,86.422,43.034,80.9,49.777Z" transform="translate(0)"/>
  </g>
</svg>
