<svg id="real-estate" xmlns="http://www.w3.org/2000/svg" width="39.617" height="39.618" viewBox="0 0 39.617 39.618">
  <defs>
    <style>
      .cls-1 {
        fill: #fff;
      }
    </style>
  </defs>
  <path id="Path_6322" data-name="Path 6322" class="cls-1" d="M132.886,8.875l.242-.194v7.954a1.161,1.161,0,0,0,1.161,1.161h2.9V11.219a1.161,1.161,0,0,1,1.161-1.161h4.643a1.161,1.161,0,0,1,1.161,1.161V17.8h2.9a1.161,1.161,0,0,0,1.161-1.161V8.681l.242.194a1.161,1.161,0,0,0,1.45-1.813L141.4.253a1.161,1.161,0,0,0-1.45,0l-8.512,6.809a1.161,1.161,0,0,0,1.45,1.813Zm7.786-3.46a1.161,1.161,0,1,1-1.161,1.161A1.161,1.161,0,0,1,140.672,5.415Z" transform="translate(-120.863 0.001)"/>
  <path id="Path_6323" data-name="Path 6323" class="cls-1" d="M241,160h2.321v5.416H241Z" transform="translate(-222.352 -147.619)"/>
  <path id="Path_6324" data-name="Path 6324" class="cls-1" d="M291.893,137a2.353,2.353,0,0,0-2.256,2.369v9.624l-4.387,7.544a1.169,1.169,0,0,1-2.021-1.174l3.052-5.259a2.787,2.787,0,0,0-4.742-2.925l-4.374,6.65a6.964,6.964,0,0,0-1.146,3.827v7.2a1.161,1.161,0,0,0,1.161,1.161H289.25a1.161,1.161,0,0,0,1.161-1.161V160.6l3.869-9.285V139.321A2.321,2.321,0,0,0,291.893,137Z" transform="translate(-254.662 -126.399)"/>
  <path id="Path_6325" data-name="Path 6325" class="cls-1" d="M12.741,147.178A2.787,2.787,0,0,0,8,150.1l3.052,5.259a1.169,1.169,0,0,1-2.021,1.174l-4.387-7.544v-9.624A2.353,2.353,0,0,0,2.387,137,2.321,2.321,0,0,0,0,139.321v11.994L3.869,160.6v4.256a1.161,1.161,0,0,0,1.161,1.161H17.1a1.161,1.161,0,0,0,1.161-1.161v-7.2a6.964,6.964,0,0,0-1.146-3.827Z" transform="translate(0 -126.399)"/>
</svg>
