<svg id="baseline-share-24px" xmlns="http://www.w3.org/2000/svg" width="25.136" height="24.815" viewBox="0 0 25.136 24.815">
  <defs>
    <style>
      .cls-1 {
        fill: none;
      }

      .cls-2 {
        fill: #fff;
      }
    </style>
  </defs>
  <path id="Path_6068" data-name="Path 6068" class="cls-1" d="M0,0H25.136V24.815H0Z"/>
  <path id="Path_6069" data-name="Path 6069" class="cls-2" d="M18.71,16.558a3.071,3.071,0,0,0-2.053.8L9.19,13.064a3.344,3.344,0,0,0,.094-.724,3.344,3.344,0,0,0-.094-.724l7.384-4.25A3.15,3.15,0,0,0,18.71,8.2a3.1,3.1,0,1,0-3.142-3.1,3.344,3.344,0,0,0,.094.724l-7.384,4.25a3.15,3.15,0,0,0-2.137-.838,3.1,3.1,0,1,0,0,6.2A3.15,3.15,0,0,0,8.279,14.6l7.457,4.3a2.882,2.882,0,0,0-.084.672,3.058,3.058,0,1,0,3.058-3.019Z" transform="translate(0.142 0.068)"/>
</svg>
