<svg xmlns="http://www.w3.org/2000/svg" width="18.419" height="17.844" viewBox="0 0 18.419 17.844">
  <defs>
    <style>
      .cls-1 {
        fill: #fff;
      }
    </style>
  </defs>
  <g id="deal" transform="translate(0)">
    <g id="Group_6594" data-name="Group 6594" transform="translate(0 0)">
      <g id="Group_6593" data-name="Group 6593" transform="translate(0)">
        <path id="Path_6489" data-name="Path 6489" class="cls-1" d="M17.336,19.627l-1.293-1.294.728-.728a5.594,5.594,0,0,0,1.648-3.982c0-.087,0-.173-.006-.261l-1.151.054c0,.068,0,.138,0,.207a4.451,4.451,0,0,1-1.312,3.166l-.728.728-5.3-5.3L6.875,13.308A.93.93,0,0,1,6.147,11.6l2.527-1.263c.018.016.037.03.054.047l.482.479.41-.413c.05-.05.1-.095.165-.158a4.511,4.511,0,0,1,1.646-.946l.089-.024a4.513,4.513,0,0,1,2.961.147L14.913,8.4a5.667,5.667,0,0,0-3.638-.208l-.093.023A5.66,5.66,0,0,0,9.21,9.27a5.632,5.632,0,0,0-7.915,7.942l-.5.5a1.72,1.72,0,0,0,1.13,2.939,1.7,1.7,0,0,0,1.627,1.627,1.7,1.7,0,0,0,1.628,1.628,1.718,1.718,0,0,0,2.925,1.143l.277.277a1.713,1.713,0,0,0,1.22.505h0a1.723,1.723,0,0,0,1.223-.51,1.7,1.7,0,0,0,.33-.476l.481.481a1.712,1.712,0,0,0,1.219.505h0a1.744,1.744,0,0,0,1.244-.53,1.669,1.669,0,0,0,.345-.513,1.711,1.711,0,0,0,.846.23,1.746,1.746,0,0,0,1.249-.532,1.7,1.7,0,0,0,.256-2.058,1.723,1.723,0,0,0,.534-2.8ZM1.608,19.339a.576.576,0,0,1,0-.814l.909-.909a.576.576,0,0,1,.828.8l-.014.014-.909.909A.588.588,0,0,1,1.608,19.339Zm1.628,1.628a.576.576,0,0,1,0-.814h0L5.16,18.229a.576.576,0,0,1,.814.814L4.959,20.058l-.909.909A.579.579,0,0,1,3.236,20.968ZM4.864,22.6a.576.576,0,0,1,0-.814l.91-.91a.575.575,0,0,1,.813.814l-.909.909A.576.576,0,0,1,4.864,22.6Zm3.366.7-.014.014h0l-.909.909a.587.587,0,0,1-.813,0,.576.576,0,0,1,0-.814L7.4,22.5a.576.576,0,1,1,.828.8Zm8.294-2.045h0a.576.576,0,0,1-.8.01l-4.493-4.49-.406.408-.407.408.243.243L14.9,22.067c.009.008.018.014.027.022l.812.81a.553.553,0,0,1-.01.782l-.01.01a.585.585,0,0,1-.414.173.575.575,0,0,1-.4-.169l-.775-.776s-.007-.01-.012-.015l-4.5-4.5-.814.814s2.7,2.7,4.507,4.509a.549.549,0,0,1-.024.776l0,0a.633.633,0,0,1-.413.173.569.569,0,0,1-.4-.168l-1.629-1.626v0l-.058-.058-.812.816.062.062a.572.572,0,0,1,0,.806.58.58,0,0,1-.818,0l-.276-.276.108-.108A1.719,1.719,0,0,0,7.9,21.19a1.68,1.68,0,0,0-1-1.472A1.717,1.717,0,0,0,4.488,17.3a1.7,1.7,0,0,0-2.25-.855l-.062.029A4.48,4.48,0,0,1,7.592,9.592l-1.957.978a2.082,2.082,0,0,0,1.629,3.824l2.372-.844,6.888,6.891A.576.576,0,0,1,16.524,21.255Z" transform="translate(0 -7.987)"/>
        <path id="Path_6490" data-name="Path 6490" class="cls-1" d="M465.106,90.869l1.109-.309a5.634,5.634,0,0,0-.484-1.186l-1.01.552A4.423,4.423,0,0,1,465.106,90.869Z" transform="translate(-448.003 -86.446)"/>
        <path id="Path_6491" data-name="Path 6491" class="cls-1" d="M428.072,38.271l.863-.766c-.071-.079-.144-.157-.222-.235a5.7,5.7,0,0,0-.736-.616l-.664.94a4.628,4.628,0,0,1,.584.491C427.958,38.146,428.016,38.207,428.072,38.271Z" transform="translate(-411.941 -35.623)"/>
      </g>
    </g>
  </g>
</svg>
