<svg id="heart_2_" data-name="heart (2)" xmlns="http://www.w3.org/2000/svg" width="34.683" height="31.173" viewBox="0 0 34.683 31.173">
  <defs>
    <style>
      .cls-1 {
        fill: #fff;
      }
    </style>
  </defs>
  <path id="Path_6312" data-name="Path 6312" class="cls-1" d="M.677,297.858H6.5a.677.677,0,0,0,.677-.677v-.662a14.461,14.461,0,0,1,5.168,1.291,15.4,15.4,0,0,0,6.348,1.4,18.778,18.778,0,0,0,5.5-1.247.677.677,0,1,0-.441-1.281,17.625,17.625,0,0,1-5.063,1.173,14.081,14.081,0,0,1-5.845-1.306,15.732,15.732,0,0,0-5.671-1.389v-6.883a8.341,8.341,0,0,0,1.326-.519c1.335-.609,2.849-1.3,4.923-.133l3.27,1.84a2.036,2.036,0,0,0,1,.261h4.387a1.355,1.355,0,0,1,.489,2.618,1.334,1.334,0,0,1-.489.092H15.2a.677.677,0,1,0,0,1.355h6.886a2.683,2.683,0,0,0,.954-.174l.016-.005,8.429-3.116a1.355,1.355,0,0,1,1.071,2.488l-.456.219-.2-.392a.677.677,0,0,0-1.212.606l.18.36c-.443.2-.947.431-1.5.674a.677.677,0,0,0,.546,1.24c1.333-.586,2.214-1,3.215-1.481A2.71,2.71,0,0,0,31,289.233l-6.245,2.309a2.667,2.667,0,0,0,.04-.458,2.713,2.713,0,0,0-2.71-2.71H17.7a.678.678,0,0,1-.332-.087l-3.27-1.84c-2.675-1.5-4.683-.588-6.15.082a4.209,4.209,0,0,1-1.441.49H.677A.677.677,0,0,0,0,287.7v9.484a.677.677,0,0,0,.677.677Zm.677-9.484H5.826V296.5H1.355Z" transform="translate(0 -268.04)"/>
  <path id="Path_6313" data-name="Path 6313" class="cls-1" d="M195.82,43.419a.677.677,0,0,0,.745,0c9.937-6.538,10.264-11.375,9.575-13.677a5.53,5.53,0,0,0-5.207-3.837,6.264,6.264,0,0,0-4.74,2.268,6.263,6.263,0,0,0-4.74-2.268,5.531,5.531,0,0,0-5.2,3.844C185.559,32.049,185.887,36.883,195.82,43.419Zm-8.274-13.281a4.2,4.2,0,0,1,3.906-2.878,5.116,5.116,0,0,1,4.156,2.389.677.677,0,0,0,1.169,0,5.162,5.162,0,0,1,4.156-2.387,4.2,4.2,0,0,1,3.909,2.871c.462,1.542.524,5.762-8.649,11.909-9.169-6.145-9.107-10.362-8.646-11.9Z" transform="translate(-173.423 -25.905)"/>
  <circle id="Ellipse_1303" data-name="Ellipse 1303" class="cls-1" cx="0.677" cy="0.677" r="0.677" transform="translate(26.148 27.515)"/>
</svg>
