<svg xmlns="http://www.w3.org/2000/svg" width="64.129" height="86.406" viewBox="0 0 64.129 86.406">
  <defs>
    <style>
      .cls-1 {
        fill: #fff;
      }
    </style>
  </defs>
  <g id="spiritual" transform="translate(-66)">
    <path id="Path_6523" data-name="Path 6523" class="cls-1" d="M121.691,25.314a8.393,8.393,0,0,0-3.375.7V13.5a8.436,8.436,0,0,0-12.189-7.557A8.439,8.439,0,0,0,90,5.944,8.436,8.436,0,0,0,77.813,13.5V26.019A8.438,8.438,0,0,0,66,33.752V54.341a32.065,32.065,0,0,0,64.129,0V33.752A8.448,8.448,0,0,0,121.691,25.314Zm3.375,29.027a27,27,0,1,1-54,0V33.752a3.375,3.375,0,0,1,6.75,0V45.9h5.063V13.5a3.375,3.375,0,1,1,6.75,0V40.588h5.063V8.438a3.375,3.375,0,1,1,6.75,0v32.15H106.5V13.5a3.375,3.375,0,1,1,6.75,0V45.9h5.063V33.752a3.375,3.375,0,1,1,6.75,0Z"/>
    <path id="Path_6524" data-name="Path 6524" class="cls-1" d="M163.093,282c-11.55,0-17.89,10.942-18.154,11.408l-.709,1.249.708,1.249c.264.466,6.6,11.408,18.154,11.408s17.89-10.942,18.154-11.408l.708-1.249-.708-1.249c-.264-.466-6.6-11.408-18.154-11.408Zm0,20.251c-6.574,0-11.126-5.156-12.91-7.594,1.787-2.442,6.338-7.595,12.91-7.595s11.123,5.152,12.91,7.594C174.216,297.1,169.665,302.251,163.093,302.251Z" transform="translate(-65.029 -234.409)"/>
    <path id="Path_6525" data-name="Path 6525" class="cls-1" d="M241,342h5.063v5.063H241Z" transform="translate(-145.467 -284.284)"/>
  </g>
</svg>
