<svg height="496pt" viewBox="0 -12 496 496" width="496pt" xmlns="http://www.w3.org/2000/svg"><path d="m408 136v120c0 97.203125-78.796875 176-176 176h-48c-97.203125 0-176-78.796875-176-176v-120zm0 0" fill="#d8d7da"/><path d="m8 432h440c0 17.671875-14.328125 32-32 32h-376c-17.671875 0-32-14.328125-32-32zm0 0" fill="#57565c"/><path d="m488 160v136h-80v-32h48v-72h-48v-32zm0 0" fill="#d8d7da"/><path d="m152 320h-80v-112l40-24 40 24zm0 0" fill="#f7941d"/><g fill="#231f20"><path d="m488 152h-72v-16c0-4.417969-3.582031-8-8-8h-400c-4.417969 0-8 3.582031-8 8v120c.0820312 72.605469 42.800781 138.394531 109.097656 168h-101.097656c-4.417969 0-8 3.582031-8 8 .0273438 22.082031 17.917969 39.972656 40 40h376c22.082031-.027344 39.972656-17.917969 40-40 0-4.417969-3.582031-8-8-8h-141.097656c50.464844-22.621094 88.144531-66.648438 102.699218-120h78.398438c4.417969 0 8-3.582031 8-8v-136c0-4.417969-3.582031-8-8-8zm-72 48h32v56h-32zm-304-6.671875 32 19.199219v99.472656h-64v-99.472656zm326.632812 246.671875c-3.402343 9.582031-12.464843 15.988281-22.632812 16h-376c-10.167969-.011719-19.230469-6.417969-22.632812-16zm-206.632812-16h-48c-92.742188-.101562-167.898438-75.257812-168-168v-112h88v35.472656l-36.121094 21.671875c-2.40625 1.445313-3.878906 4.046875-3.878906 6.855469v112c0 4.417969 3.582031 8 8 8h80c4.417969 0 8-3.582031 8-8v-112c0-2.808594-1.472656-5.410156-3.878906-6.855469l-36.121094-21.671875v-35.472656h280v112c-.101562 92.742188-75.257812 167.898438-168 168zm248-136h-64v-16h40c4.417969 0 8-3.582031 8-8v-72c0-4.417969-3.582031-8-8-8h-40v-16h64zm0 0"/><path d="m113.761719 112c0 4.417969 3.578125 8 8 8 4.417969 0 8-3.582031 8-8-.082031-4.664062 1.609375-9.183594 4.734375-12.648438 10.316406-12.851562 10.316406-31.148437 0-44-3.128906-3.46875-4.820313-7.996093-4.734375-12.664062-.082031-4.667969 1.609375-9.195312 4.734375-12.664062 5.113281-6.191407 7.855468-13.996094 7.742187-22.023438 0-4.417969-3.578125-8-8-8-4.417969 0-8 3.582031-8 8 .082031 4.667969-1.609375 9.195312-4.734375 12.664062-5.109375 6.1875-7.851562 13.984376-7.742187 22.007813-.109375 8.023437 2.632812 15.820313 7.742187 22.007813 6.316406 7.257812 6.316406 18.0625 0 25.320312-5.105468 6.183594-7.851562 13.980469-7.742187 22zm0 0"/><path d="m209.761719 112c0 4.417969 3.578125 8 8 8 4.417969 0 8-3.582031 8-8-.082031-4.664062 1.609375-9.183594 4.734375-12.648438 10.316406-12.851562 10.316406-31.148437 0-44-3.128906-3.46875-4.820313-7.996093-4.734375-12.664062-.082031-4.667969 1.609375-9.195312 4.734375-12.664062 5.113281-6.191407 7.855468-13.996094 7.742187-22.023438 0-4.417969-3.578125-8-8-8-4.417969 0-8 3.582031-8 8 .082031 4.667969-1.609375 9.195312-4.734375 12.664062-5.109375 6.1875-7.851562 13.984376-7.742187 22.007813-.109375 8.023437 2.632812 15.820313 7.742187 22.007813 6.316406 7.257812 6.316406 18.0625 0 25.320312-5.105468 6.183594-7.851562 13.980469-7.742187 22zm0 0"/><path d="m305.761719 112c0 4.417969 3.578125 8 8 8 4.417969 0 8-3.582031 8-8-.082031-4.664062 1.609375-9.183594 4.734375-12.648438 10.316406-12.851562 10.316406-31.148437 0-44-3.128906-3.46875-4.820313-7.996093-4.734375-12.664062-.082031-4.667969 1.609375-9.195312 4.734375-12.664062 5.113281-6.191407 7.855468-13.996094 7.742187-22.023438 0-4.417969-3.578125-8-8-8-4.417969 0-8 3.582031-8 8 .082031 4.667969-1.609375 9.195312-4.734375 12.664062-5.109375 6.1875-7.851562 13.984376-7.742187 22.007813-.109375 8.023437 2.632812 15.820313 7.742187 22.007813 6.316406 7.257812 6.316406 18.0625 0 25.320312-5.105468 6.183594-7.851562 13.980469-7.742187 22zm0 0"/><path d="m344 168h-96c-4.417969 0-8 3.582031-8 8s3.582031 8 8 8h96c4.417969 0 8-3.582031 8-8s-3.582031-8-8-8zm0 0"/><path d="m376 168h-8c-4.417969 0-8 3.582031-8 8s3.582031 8 8 8h8c4.417969 0 8-3.582031 8-8s-3.582031-8-8-8zm0 0"/><path d="m96 296h8c4.417969 0 8-3.582031 8-8s-3.582031-8-8-8h-8c-4.417969 0-8 3.582031-8 8s3.582031 8 8 8zm0 0"/><path d="m122.320312 293.679688c.777344.707031 1.671876 1.273437 2.640626 1.679687.960937.410156 1.992187.628906 3.039062.640625 2.117188-.03125 4.144531-.859375 5.679688-2.320312.722656-.765626 1.292968-1.660157 1.679687-2.640626.855469-1.9375.855469-4.140624 0-6.078124-.386719-.980469-.957031-1.875-1.679687-2.640626-2.300782-2.269531-5.742188-2.933593-8.71875-1.679687-.96875.40625-1.863282.972656-2.640626 1.679687-.722656.765626-1.292968 1.660157-1.679687 2.640626-.851563 1.9375-.851563 4.140624 0 6.078124.386719.980469.957031 1.875 1.679687 2.640626zm0 0"/></g></svg>