<svg id="team_3_" data-name="team (3)" xmlns="http://www.w3.org/2000/svg" width="41.342" height="41.342" viewBox="0 0 41.342 41.342">
  <defs>
    <style>
      .cls-1 {
        fill: #fff;
      }
    </style>
  </defs>
  <g id="Group_6379" data-name="Group 6379" transform="translate(0 0)">
    <g id="Group_6378" data-name="Group 6378" transform="translate(0 0)">
      <path id="Path_6336" data-name="Path 6336" class="cls-1" d="M41.3,30.9l-.768-3.9a7.971,7.971,0,0,0-2.2-4.116l-1.349-1.345V16.959A2.272,2.272,0,0,0,38.3,14.1a2.275,2.275,0,0,0,1.519-2.971,2.274,2.274,0,0,0,0-4.294A2.275,2.275,0,0,0,37.681,3.78H33.122A2.306,2.306,0,0,0,30.9.044l-3.9.768a7.97,7.97,0,0,0-4.116,2.2L21.545,4.361H16.96A2.272,2.272,0,0,0,14.1,3.044a2.274,2.274,0,0,0-2.971-1.519,2.274,2.274,0,0,0-4.294,0A2.275,2.275,0,0,0,3.781,3.661V8.22A2.306,2.306,0,0,0,.045,10.44l.768,3.9a7.971,7.971,0,0,0,2.2,4.116L4.362,19.8v4.585a2.272,2.272,0,0,0-1.317,2.857,2.275,2.275,0,0,0-1.519,2.971,2.274,2.274,0,0,0,0,4.294,2.275,2.275,0,0,0,2.136,3.057H8.22a2.307,2.307,0,0,0,1.768,3.78,2.343,2.343,0,0,0,.452-.044l3.9-.768a7.971,7.971,0,0,0,4.116-2.2L19.8,36.981h4.585A2.272,2.272,0,0,0,27.239,38.3a2.275,2.275,0,0,0,2.971,1.519,2.274,2.274,0,0,0,4.294,0,2.275,2.275,0,0,0,3.057-2.136V33.122A2.306,2.306,0,0,0,41.3,30.9ZM17.119,10.644V5.976H21.88a.808.808,0,0,0,.572-.237l1.582-1.586A6.361,6.361,0,0,1,27.318,2.4l3.9-.768a.692.692,0,0,1,.3,1.352l-1.619.4A1.024,1.024,0,0,0,30.138,5.4h7.543A.66.66,0,0,1,37.76,6.71l-4.469.005a.807.807,0,1,0,0,1.615l5.776-.005a.66.66,0,0,1,0,1.32H33.291a.807.807,0,1,0,0,1.615H37.76a.66.66,0,0,1-.079,1.315h-4.39a.807.807,0,1,0,0,1.615h2.936a.66.66,0,0,1-.079,1.315H27.994a6.34,6.34,0,0,1-4.52-1.876L22.452,12.6a.808.808,0,0,0-.572-.237H17.119ZM4.153,17.309A6.359,6.359,0,0,1,2.4,14.024l-.768-3.9a.692.692,0,0,1,.559-.816.694.694,0,0,1,.793.517l.4,1.619A1.024,1.024,0,0,0,5.4,11.2V3.661A.66.66,0,0,1,6.71,3.582l.005,4.469a.807.807,0,1,0,1.615,0V3.661c0-.049,0-.1-.005-.146V2.275a.66.66,0,0,1,1.32,0v1.24c0,.048-.005.1-.005.146l.005,4.39a.807.807,0,1,0,1.615,0V3.582a.66.66,0,0,1,1.315.079s0,3.928,0,3.958v.433a.807.807,0,1,0,1.615,0V5.115a.66.66,0,0,1,1.315.079v8.154a6.427,6.427,0,0,1-1.876,4.52L12.6,18.891a.807.807,0,0,0-.237.572v4.761H10.751V22.08a.807.807,0,1,0-1.615,0v2.144H5.976V19.462a.808.808,0,0,0-.237-.572ZM24.224,35.366H19.463a.808.808,0,0,0-.572.237l-1.582,1.586a6.358,6.358,0,0,1-3.285,1.755l-3.9.768a.692.692,0,0,1-.816-.559.694.694,0,0,1,.517-.792l1.619-.4a1.024,1.024,0,0,0-.244-2.018H3.662a.66.66,0,0,1-.079-1.315l4.469-.005a.807.807,0,1,0,0-1.615l-5.776.005a.66.66,0,1,1,0-1.32H8.052a.807.807,0,0,0,0-1.615H3.583a.66.66,0,0,1,.079-1.315h4.39a.807.807,0,0,0,0-1.615H5.116a.66.66,0,0,1,.079-1.315h8.154a6.34,6.34,0,0,1,4.52,1.876l1.022,1.025a.807.807,0,0,0,.572.237h4.761Zm.025-8H19.8l-.786-.788a7.936,7.936,0,0,0-5.032-2.326V19.8l.788-.786a8.06,8.06,0,0,0,2.325-5.032h4.452l.786.788a7.936,7.936,0,0,0,5.032,2.326v4.451l-.788.786A7.936,7.936,0,0,0,24.249,27.362Zm15.356,4.377a.692.692,0,0,1-1.243-.226l-.4-1.619a1.024,1.024,0,0,0-2.018.244v7.543a.66.66,0,0,1-1.315.079l-.005-4.469a.807.807,0,1,0-1.615,0l.005,5.776a.66.66,0,0,1-1.32,0V33.29a.807.807,0,1,0-1.615,0v4.469a.66.66,0,0,1-1.315-.079V33.29a.807.807,0,1,0-1.615,0v2.936a.66.66,0,0,1-1.315-.079V27.993a6.341,6.341,0,0,1,1.876-4.52l1.025-1.022a.807.807,0,0,0,.237-.572V17.118h3.114v2.449a.807.807,0,1,0,1.615,0V17.118h1.66v4.761a.808.808,0,0,0,.237.572l1.586,1.582a6.358,6.358,0,0,1,1.755,3.285l.768,3.9A.684.684,0,0,1,39.605,31.739Z" transform="translate(0 0)"/>
    </g>
  </g>
  <g id="Group_6381" data-name="Group 6381" transform="translate(32.091 21.797)">
    <g id="Group_6380" data-name="Group 6380">
      <path id="Path_6337" data-name="Path 6337" class="cls-1" d="M398.813,270.187a.808.808,0,1,0,.237.572A.813.813,0,0,0,398.813,270.187Z" transform="translate(-397.435 -269.95)"/>
    </g>
  </g>
  <g id="Group_6383" data-name="Group 6383" transform="translate(9.135 18.235)">
    <g id="Group_6382" data-name="Group 6382">
      <path id="Path_6338" data-name="Path 6338" class="cls-1" d="M114.511,226.068a.807.807,0,1,0,.237.571A.81.81,0,0,0,114.511,226.068Z" transform="translate(-113.133 -225.831)"/>
    </g>
  </g>
</svg>
