<svg xmlns="http://www.w3.org/2000/svg" width="16.475" height="33.584" viewBox="0 0 16.475 33.584">
  <defs>
    <style>
      .cls-1 {
        fill: #00adef;
      }
    </style>
  </defs>
  <path id="tie" class="cls-1" d="M154.253,16.652a.416.416,0,0,0-.22-.095,25.894,25.894,0,0,0-7.869-1.227h-.012a25.911,25.911,0,0,0-7.926,1.241l-.005,0h0a.415.415,0,0,0-.262.56l3.575,8.555a.419.419,0,0,0,.662.155l1.033-.9,1,2.391-3.154,16.7,5.092,4.883,5.092-4.883-3.154-16.7,1-2.39,1.031.9a.419.419,0,0,0,.661-.154l3.575-8.555A.419.419,0,0,0,154.253,16.652Zm-8.1-.485h.012a25.053,25.053,0,0,1,6.8.943l-6.8,4.226-6.81-4.231a25.064,25.064,0,0,1,6.8-.938Zm-4.068,8.662-2.847-6.812,6.225,3.868Zm7.305,13.822-4.37,1.514a.419.419,0,1,0,.274.791l4.253-1.474.8,4.257-4.185,4.014-4.185-4.014.331-1.75,1.2-.417a.419.419,0,1,0-.274-.791l-.749.26L142.873,39l6.177-2.14Zm-.99-5.239-1.045.362a.419.419,0,0,0,.274.791l.928-.321.338,1.788-5.84,2.024.385-2.038,2.983-1.034a.419.419,0,0,0-.274-.791l-2.53.877,1.39-7.362h2.313Zm-1.009-6.542h-2.449l-1.047-2.507,2.271-1.979,2.272,1.98Zm2.856-2.041-3.379-2.944,6.225-3.868Z" transform="translate(-137.926 -15.33)"/>
</svg>
