<svg xmlns="http://www.w3.org/2000/svg" width="38" height="52" viewBox="0 0 38 52">
  <defs>
    <style>
      .cls-1 {
        fill: #fff;
      }
    </style>
  </defs>
  <path id="Union_1" data-name="Union 1" class="cls-1" d="M28.827,47.333A4.587,4.587,0,1,1,33.414,52,4.627,4.627,0,0,1,28.827,47.333ZM15.724,26a8.519,8.519,0,1,1,8.518,8.666A8.594,8.594,0,0,1,15.724,26ZM0,27.334a4.627,4.627,0,0,1,4.586-4.667,4.668,4.668,0,0,1,0,9.334A4.627,4.627,0,0,1,0,27.334ZM28.827,4.667a4.587,4.587,0,1,1,9.173,0,4.587,4.587,0,1,1-9.173,0Z"/>
</svg>
