<svg xmlns="http://www.w3.org/2000/svg" width="17.433" height="20.789" viewBox="0 0 17.433 20.789">
  <defs>
    <style>
      .cls-1 {
        fill: #fff;
        stroke: #fff;
        stroke-width: 0.2px;
      }
    </style>
  </defs>
  <g id="worker" transform="translate(0.1 0.1)">
    <path id="Path_6500" data-name="Path 6500" class="cls-1" d="M56.728,16.693l-4.685-.921a1.75,1.75,0,0,1-.02-1.264l.052-.14q.079-.056.155-.117c1.782-1.442,2.686-2.737,2.686-3.851,0-.116,0-.233-.014-.348v0c-.006-.063-.012-.15-.016-.259a1.579,1.579,0,0,0,1.068-1.55,1.888,1.888,0,0,0-.037-.4,1.11,1.11,0,0,0,.67-1.018V6.291a.3.3,0,0,0-.3-.3h-.9V4.72A4.056,4.056,0,0,0,51.329.669h-.011V.3a.3.3,0,0,0-.3-.3H49.692a.3.3,0,0,0-.3.3V.669h-.073A4.056,4.056,0,0,0,45.265,4.72V5.989h-.884a.3.3,0,0,0-.3.3v.535a1.11,1.11,0,0,0,.7,1.03,1.9,1.9,0,0,0-.035.383A1.581,1.581,0,0,0,45.8,9.786c-.005.11-.011.2-.018.267-.01.108-.014.224-.014.347,0,1.113.9,2.409,2.684,3.849q.062.051.127.1l.059.161a1.75,1.75,0,0,1-.021,1.264l-4.646.92a2.77,2.77,0,0,0-2.241,2.715v.88a.3.3,0,0,0,.3.3H51.62a.3.3,0,0,0,0-.6H46.664v-.879h7.357v.879h-.987a.3.3,0,1,0,0,.6h5.631a.3.3,0,0,0,.3-.3v-.88A2.77,2.77,0,0,0,56.728,16.693ZM55.676,18.5H54.625V16.894l1.051.206ZM55.349,8.233a1.044,1.044,0,0,1-.48.919c0-.34,0-.752,0-1.218h.447a1.289,1.289,0,0,1,.032.3Zm-4.02-6.961a3.453,3.453,0,0,1,3.436,3.146H53.476a.3.3,0,1,0,0,.6h1.3v.968h-3.46V1.272Zm-1.335,3.75h.721v.968h-.721ZM50.715.6V4.418h-.721V.6ZM45.869,5.021h1.3a.3.3,0,0,0,0-.6H45.882a3.453,3.453,0,0,1,3.436-3.146h.073V5.989H45.869Zm-.52,3.211a1.288,1.288,0,0,1,.032-.3h.446c0,.452,0,.867,0,1.214A1.048,1.048,0,0,1,45.348,8.233ZM46.375,10.4c0-.1,0-.2.012-.291.038-.389.047-1.328.043-2.176h.683a.3.3,0,0,0,0-.6H45.188a.506.506,0,0,1-.505-.5V6.592h11.3v.233a.506.506,0,0,1-.505.5H48.523a.3.3,0,1,0,0,.6h5.743c-.005.673-.007,1.761.033,2.171.008.1.012.2.012.3,0,.91-.851,2.079-2.463,3.383a2.383,2.383,0,0,1-1.5.532h-.011a2.387,2.387,0,0,1-1.5-.534c-1.61-1.3-2.461-2.472-2.461-3.381Zm3.962,4.518h.013a2.979,2.979,0,0,0,.99-.17,2.35,2.35,0,0,0,.189,1.355,1.2,1.2,0,0,1-2.394,0,2.35,2.35,0,0,0,.188-1.364,2.981,2.981,0,0,0,1.013.178ZM45.01,17.1l1.051-.208V18.5H45.01Zm-2.672,2.883v-.578a2.166,2.166,0,0,1,1.753-2.123l.315-.062v2.764Zm3.723-.005H45.01v-.874h1.051Zm.6-1.477V16.775l1.9-.377a1.8,1.8,0,0,0,1.766,1.441A1.8,1.8,0,0,0,52.1,16.4l1.923.378V18.5H46.664Zm9.012.6v.874H54.625v-.874Zm2.689.879H56.279V17.219l.334.066a2.166,2.166,0,0,1,1.752,2.123Z" transform="translate(-41.735 0)"/>
    <path id="Path_6501" data-name="Path 6501" class="cls-1" d="M222.6,277.251a1.419,1.419,0,0,0,1.369-1.05.3.3,0,0,0-.583-.156.815.815,0,0,1-1.573,0,.3.3,0,0,0-.583.156A1.419,1.419,0,0,0,222.6,277.251Z" transform="translate(-214 -264.73)"/>
  </g>
</svg>
