<svg xmlns="http://www.w3.org/2000/svg" width="17.633" height="20.825" viewBox="0 0 17.633 20.825">
  <defs>
    <style>
      .cls-1, .cls-2 {
        fill: #444b69;
      }

      .cls-2 {
        stroke: #444b69;
        stroke-width: 0.2px;
      }
    </style>
  </defs>
  <g id="Group_6789" data-name="Group 6789" transform="translate(-317 -737.148)">
    <path id="mail" class="cls-1" d="M13.961,13.511l2.268-2.063,3.752-3.4L16.229,4.642,12.406,1.173,8.583,4.642,4.831,8.048l3.752,3.4,2.261,2.063,1.23-1.1a.49.49,0,0,1,.664,0ZM3.779,7.653,7.912,3.9,12.067.134V.127L12.074.12h.007l.007-.007h0L12.1.106h0L12.1.1h.007l.007-.007h0l.007-.007h0l.007-.007h.014V.071h.007V.064h.014l.007-.007h0l.007-.007A.821.821,0,0,1,12.358,0h.093a.721.721,0,0,1,.177.049l.007.007h0l.007.007h.014V.071h.007l.007.007h.007l.007.007h0l.007.007H12.7L12.705.1h0l.007.007h0l.007.007h.007l.007.007h0l.007.007V.135L16.9,3.9,21.03,7.653a.489.489,0,0,1,.191.4V20.323a.5.5,0,0,1-.495.5H4.075l-.014-.007H4.012L4,20.81H3.977L3.962,20.8H3.948L3.941,20.8H3.927l-.007-.007a.5.5,0,0,1-.332-.467V8.049a.51.51,0,0,1,.191-.4Zm.806,1.519V19.2l3.328-3.017,2.2-2-2.2-1.993ZM20.222,19.2V9.172L16.9,12.19l-2.2,1.993,2.2,2Zm-3.992-2.282-3.823-3.469L8.583,16.917l-3.208,2.9H19.43Z" transform="translate(313.412 737.148)"/>
    <g id="location" transform="translate(243.032 741.217)">
      <path id="Path_6617" data-name="Path 6617" class="cls-2" d="M82.8,8.77a.488.488,0,0,1-.431-.266l0-.005L80.324,4.518A3.221,3.221,0,0,1,80.362,1.5,2.779,2.779,0,0,1,82.741,0h.127a2.779,2.779,0,0,1,2.379,1.5,3.221,3.221,0,0,1,.037,3.017L83.239,8.5l0,.005a.488.488,0,0,1-.431.266Zm0-8.222h-.053a2.271,2.271,0,0,0-1.944,1.228,2.647,2.647,0,0,0-.031,2.479L82.8,8.2l2.028-3.945A2.647,2.647,0,0,0,84.8,1.776,2.271,2.271,0,0,0,82.857.548H82.8Z" transform="translate(0 0)"/>
      <path id="Path_6618" data-name="Path 6618" class="cls-1" d="M185.3,90.593a1.3,1.3,0,1,1,1.3-1.3A1.3,1.3,0,0,1,185.3,90.593Zm0-2.017a.72.72,0,1,0,.72.72A.721.721,0,0,0,185.3,88.576Z" transform="translate(-102.492 -86.523)"/>
    </g>
  </g>
</svg>
